# xmcd
#
# Track frame offsets:
#	150
#	15092
#	32780
#	48976
#	67582
#	85276
#	105333
#	123008
#	140380
#	159987
#	176622
#	195256
#
# Disc length: 2974 seconds
#
# Revision: 0
# Processed by: cddbd v1.5.2PL0 Copyright (c) Steve Scherf et al.
# Submitted via: EasyCDDAExtractor 15.3.0.1
#
DISCID=7e0b9c0c
DTITLE=La Ley - Adaptacion
DYEAR=2016
DGENRE=Latin
TTITLE0=Reino De La Verdad
TTITLE1=Ya No Estas
TTITLE2=Guerras De Amor
TTITLE3=Rompe El Muro
TTITLE4=Child
TTITLE5=El Borde
TTITLE6=Horas
TTITLE7=Amar Para Deshacer
TTITLE8=Soul Chauffeur
TTITLE9=Tu No
TTITLE10=Adaptacion
TTITLE11=Dime Adios
EXTD=
EXTT0=
EXTT1=
EXTT2=
EXTT3=
EXTT4=
EXTT5=
EXTT6=
EXTT7=
EXTT8=
EXTT9=
EXTT10=
EXTT11=
PLAYORDER=
